<svg width="1407" height="256" viewBox="0 0 1407 256" fill="none" xmlns="http://www.w3.org/2000/svg">
<path d="M73.6813 95.6508C62.3207 95.5402 54.7606 95.3949 47.1925 95.7338L82.7744 18.4033H34.9813L0 124.669H53.0644C53.6495 133.367 55.5802 141.616 58.8565 149.417C63.0351 158.724 68.6382 166.891 75.6658 173.918C82.6934 180.756 90.8607 186.264 100.168 190.443C109.664 194.431 119.826 196.426 130.652 196.426C138.63 196.426 146.512 195.286 154.299 193.007C162.277 190.918 169.684 187.499 176.522 182.75C183.359 178.002 189.437 171.829 194.756 164.232C200.074 156.634 204.347 147.422 207.576 136.596H196.724C181.437 136.596 168.517 147.465 156.009 156.254C148.981 161.003 140.529 163.377 130.652 163.377C124.764 163.377 119.161 162.332 113.843 160.243C108.525 157.964 103.871 154.925 99.8826 151.126C95.894 147.327 92.6651 142.864 90.1959 137.736C81.5926 119.867 95.6344 95.8647 73.6813 95.6508Z" fill="black"/>
<path d="M121.338 94.9801C117.546 109.539 128.533 123.755 143.578 123.755H208.227C208.037 113.119 206.043 103.052 202.244 93.5556C198.636 83.8688 193.507 75.4167 186.86 68.1991C180.212 60.7916 172.14 54.9036 162.643 50.5351C153.146 46.1666 142.415 43.9823 130.449 43.9823C119.622 43.9823 109.461 46.0716 99.964 50.2502C90.6571 54.2388 83.7264 57.6398 75.4623 66.7746C69.7035 73.1401 65.4765 81.3219 63.8581 85.4422H69.8689C90.0826 85.4422 110.245 77.0927 130.449 76.4613C148.303 76.6513 160.838 82.8242 168.056 94.9801H121.338Z" fill="black"/>
<path d="M335.481 97.7325V130.676H233.809V97.7325H335.481ZM354.645 90.6325V57.6885H367.709V6.85247H400.653V57.6885H433.881V90.6325H400.653V199.688H367.709V90.6325H354.645ZM449.219 90.6325V57.6885H462.283V6.85247H495.227V57.6885H528.455V90.6325H495.227V199.688H462.283V90.6325H449.219ZM548.337 128.688C548.337 117.707 550.325 107.578 554.301 98.3005C558.277 88.8338 563.768 80.6925 570.773 73.8765C577.778 66.8711 585.92 61.3805 595.197 57.4045C604.664 53.4285 614.793 51.4405 625.585 51.4405C636.377 51.4405 646.412 53.5231 655.689 57.6885C665.156 61.6645 673.297 67.1551 680.113 74.1605C687.118 80.9765 692.609 89.1178 696.585 98.5845C700.75 107.862 702.833 117.896 702.833 128.688C702.833 139.48 700.75 149.61 696.585 159.076C692.609 168.354 687.118 176.495 680.113 183.5C673.297 190.316 665.156 195.712 655.689 199.688C646.412 203.854 636.377 205.936 625.585 205.936C621.42 205.936 617.254 205.463 613.089 204.516C608.924 203.57 604.853 202.339 600.877 200.824C597.09 199.31 593.493 197.606 590.085 195.712C586.677 193.63 583.742 191.452 581.281 189.18V255.92H548.337V128.688ZM581.281 128.688C581.281 134.747 582.417 140.522 584.689 146.012C587.15 151.314 590.369 155.952 594.345 159.928C598.321 163.904 602.96 167.123 608.261 169.584C613.752 171.856 619.526 172.992 625.585 172.992C631.644 172.992 637.324 171.856 642.625 169.584C648.116 167.123 652.849 163.904 656.825 159.928C660.801 155.952 663.925 151.314 666.197 146.012C668.658 140.522 669.889 134.747 669.889 128.688C669.889 122.63 668.658 116.95 666.197 111.648C663.925 106.158 660.801 101.424 656.825 97.4485C652.849 93.4725 648.116 90.3485 642.625 88.0765C637.324 85.6151 631.644 84.3845 625.585 84.3845C619.526 84.3845 613.752 85.6151 608.261 88.0765C602.96 90.3485 598.321 93.4725 594.345 97.4485C590.369 101.424 587.15 106.158 584.689 111.648C582.417 116.95 581.281 122.63 581.281 128.688ZM817.083 128.688C817.083 117.707 819.071 107.578 823.047 98.3005C827.023 88.8338 832.514 80.6925 839.519 73.8765C846.524 66.8711 854.666 61.3805 863.943 57.4045C873.41 53.4285 883.539 51.4405 894.331 51.4405C905.123 51.4405 915.158 53.5231 924.435 57.6885C933.902 61.6645 942.043 67.1551 948.859 74.1605C955.864 80.9765 961.355 89.1178 965.331 98.5845C969.496 107.862 971.579 117.896 971.579 128.688C971.579 139.48 969.496 149.61 965.331 159.076C961.355 168.354 955.864 176.495 948.859 183.5C942.043 190.316 933.902 195.712 924.435 199.688C915.158 203.854 905.123 205.936 894.331 205.936C890.166 205.936 886 205.463 881.835 204.516C877.67 203.57 873.599 202.339 869.623 200.824C865.836 199.31 862.239 197.606 858.831 195.712C855.423 193.63 852.488 191.452 850.027 189.18V255.92H817.083V128.688ZM850.027 128.688C850.027 134.747 851.163 140.522 853.435 146.012C855.896 151.314 859.115 155.952 863.091 159.928C867.067 163.904 871.706 167.123 877.007 169.584C882.498 171.856 888.272 172.992 894.331 172.992C900.39 172.992 906.07 171.856 911.371 169.584C916.862 167.123 921.595 163.904 925.571 159.928C929.547 155.952 932.671 151.314 934.943 146.012C937.404 140.522 938.635 134.747 938.635 128.688C938.635 122.63 937.404 116.95 934.943 111.648C932.671 106.158 929.547 101.424 925.571 97.4485C921.595 93.4725 916.862 90.3485 911.371 88.0765C906.07 85.6151 900.39 84.3845 894.331 84.3845C888.272 84.3845 882.498 85.6151 877.007 88.0765C871.706 90.3485 867.067 93.4725 863.091 97.4485C859.115 101.424 855.896 106.158 853.435 111.648C851.163 116.95 850.027 122.63 850.027 128.688ZM989.564 0.888463H1022.51V199.688H989.564V0.888463ZM1140.17 115.908C1140.17 111.743 1139.32 107.767 1137.62 103.98C1136.1 100.194 1133.93 96.8805 1131.09 94.0405C1128.25 91.2005 1124.93 88.9285 1121.15 87.2245C1117.36 85.5205 1113.29 84.6685 1108.93 84.6685C1104.58 84.6685 1100.51 85.6151 1096.72 87.5085C1092.93 89.2125 1089.62 91.4845 1086.78 94.3245C1083.94 97.1645 1081.67 100.478 1079.97 104.264C1078.26 108.051 1077.41 111.932 1077.41 115.908L1077.69 199.688H1044.47V57.6885H1077.41V65.9245C1081.2 61.1911 1085.74 57.5938 1091.04 55.1325C1096.34 52.6711 1102.31 51.3458 1108.93 51.1565C1117.64 51.1565 1125.88 52.8605 1133.64 56.2685C1141.59 59.6765 1148.5 64.3151 1154.37 70.1845C1160.43 76.0538 1165.17 82.9645 1168.57 90.9165C1171.98 98.6791 1173.69 107.01 1173.69 115.908L1173.97 199.688H1140.46L1140.17 115.908ZM1195.35 57.6885H1228.29V199.688H1195.35V57.6885ZM1191.37 21.6205C1191.37 15.5618 1193.36 10.5445 1197.33 6.56847C1201.31 2.59247 1206.14 0.604467 1211.82 0.604467C1217.88 0.604467 1222.89 2.59247 1226.87 6.56847C1230.85 10.5445 1232.83 15.5618 1232.83 21.6205C1232.83 27.3005 1230.85 32.1285 1226.87 36.1045C1222.89 40.0805 1217.88 42.0685 1211.82 42.0685C1206.14 42.0685 1201.31 40.0805 1197.33 36.1045C1193.36 32.1285 1191.37 27.3005 1191.37 21.6205ZM1252.51 128.688C1252.51 117.707 1254.5 107.578 1258.48 98.3005C1262.45 88.8338 1267.94 80.6925 1274.95 73.8765C1281.95 66.8711 1290.1 61.3805 1299.37 57.4045C1308.84 53.4285 1318.97 51.4405 1329.76 51.4405C1340.55 51.4405 1350.59 53.5231 1359.86 57.6885C1369.33 61.6645 1377.47 67.1551 1384.29 74.1605C1391.29 80.9765 1396.78 89.1178 1400.76 98.5845C1404.93 107.862 1407.01 117.896 1407.01 128.688C1407.01 139.48 1404.93 149.61 1400.76 159.076C1396.78 168.354 1391.29 176.495 1384.29 183.5C1377.47 190.316 1369.33 195.712 1359.86 199.688C1350.59 203.854 1340.55 205.936 1329.76 205.936C1325.6 205.936 1321.43 205.463 1317.26 204.516C1313.1 203.57 1309.03 202.339 1305.05 200.824C1301.27 199.31 1297.67 197.606 1294.26 195.712C1290.85 193.63 1287.92 191.452 1285.46 189.18V255.92H1252.51V128.688ZM1285.46 128.688C1285.46 134.747 1286.59 140.522 1288.86 146.012C1291.33 151.314 1294.54 155.952 1298.52 159.928C1302.5 163.904 1307.14 167.123 1312.44 169.584C1317.93 171.856 1323.7 172.992 1329.76 172.992C1335.82 172.992 1341.5 171.856 1346.8 169.584C1352.29 167.123 1357.02 163.904 1361 159.928C1364.98 155.952 1368.1 151.314 1370.37 146.012C1372.83 140.522 1374.06 134.747 1374.06 128.688C1374.06 122.63 1372.83 116.95 1370.37 111.648C1368.1 106.158 1364.98 101.424 1361 97.4485C1357.02 93.4725 1352.29 90.3485 1346.8 88.0765C1341.5 85.6151 1335.82 84.3845 1329.76 84.3845C1323.7 84.3845 1317.93 85.6151 1312.44 88.0765C1307.14 90.3485 1302.5 93.4725 1298.52 97.4485C1294.54 101.424 1291.33 106.158 1288.86 111.648C1286.59 116.95 1285.46 122.63 1285.46 128.688Z" fill="black" fill-opacity="0.98"/>
</svg>
