<svg width="1407" height="256" viewBox="0 0 1407 256" fill="none" xmlns="http://www.w3.org/2000/svg">
<path d="M73.6813 95.6508C62.3207 95.5402 54.7606 95.3949 47.1925 95.7338L82.7744 18.4033H34.9813L0 124.669H53.0644C53.6495 133.367 55.5802 141.616 58.8565 149.417C63.0351 158.724 68.6382 166.891 75.6658 173.918C82.6934 180.756 90.8607 186.264 100.168 190.443C109.664 194.431 119.826 196.426 130.652 196.426C138.63 196.426 146.512 195.286 154.299 193.007C162.277 190.918 169.684 187.499 176.522 182.75C183.359 178.002 189.437 171.829 194.756 164.232C200.074 156.634 204.347 147.422 207.576 136.596H196.724C181.437 136.596 168.517 147.465 156.009 156.254C148.981 161.003 140.529 163.377 130.652 163.377C124.764 163.377 119.161 162.332 113.843 160.243C108.525 157.964 103.871 154.925 99.8826 151.126C95.894 147.327 92.6651 142.864 90.1959 137.736C81.5926 119.867 95.6344 95.8647 73.6813 95.6508Z" fill="url(#paint0_linear_738_9790)"/>
<path d="M121.338 94.9801C117.546 109.539 128.533 123.755 143.578 123.755H208.227C208.037 113.119 206.043 103.052 202.244 93.5556C198.636 83.8688 193.507 75.4167 186.86 68.1991C180.212 60.7916 172.14 54.9036 162.643 50.5351C153.146 46.1666 142.415 43.9823 130.449 43.9823C119.622 43.9823 109.461 46.0716 99.964 50.2502C90.6571 54.2388 83.7264 57.6398 75.4623 66.7746C69.7035 73.1401 65.4765 81.3219 63.8581 85.4422H71.1146C90.524 85.4422 109.808 77.287 129.201 76.5059C129.611 76.4894 130.027 76.4745 130.449 76.4613C148.303 76.6513 160.838 82.8242 168.056 94.9801H121.338Z" fill="url(#paint1_linear_738_9790)"/>
<path d="M334.783 97.128V130.072H233.111V97.128H334.783Z" fill="url(#paint2_linear_738_9790)"/>
<path d="M353.947 90.028V57.084H367.011V6.248H399.955V57.084H433.183V90.028H399.955V199.084H367.011V90.028H353.947Z" fill="url(#paint3_linear_738_9790)"/>
<path d="M448.521 90.028V57.084H461.585V6.248H494.529V57.084H527.757V90.028H494.529V199.084H461.585V90.028H448.521Z" fill="url(#paint4_linear_738_9790)"/>
<path d="M547.639 128.084C547.639 117.103 549.627 106.973 553.603 97.696C557.579 88.2293 563.07 80.088 570.075 73.272C577.08 66.2667 585.222 60.776 594.499 56.8C603.966 52.824 614.095 50.836 624.887 50.836C635.679 50.836 645.714 52.9187 654.991 57.084C664.458 61.06 672.599 66.5507 679.415 73.556C686.42 80.372 691.911 88.5133 695.887 97.98C700.052 107.257 702.135 117.292 702.135 128.084C702.135 138.876 700.052 149.005 695.887 158.472C691.911 167.749 686.42 175.891 679.415 182.896C672.599 189.712 664.458 195.108 654.991 199.084C645.714 203.249 635.679 205.332 624.887 205.332C620.722 205.332 616.556 204.859 612.391 203.912C608.226 202.965 604.155 201.735 600.179 200.22C596.392 198.705 592.795 197.001 589.387 195.108C585.979 193.025 583.044 190.848 580.583 188.576V255.316H547.639V128.084ZM580.583 128.084C580.583 134.143 581.719 139.917 583.991 145.408C586.452 150.709 589.671 155.348 593.647 159.324C597.623 163.3 602.262 166.519 607.563 168.98C613.054 171.252 618.828 172.388 624.887 172.388C630.946 172.388 636.626 171.252 641.927 168.98C647.418 166.519 652.151 163.3 656.127 159.324C660.103 155.348 663.227 150.709 665.499 145.408C667.96 139.917 669.191 134.143 669.191 128.084C669.191 122.025 667.96 116.345 665.499 111.044C663.227 105.553 660.103 100.82 656.127 96.844C652.151 92.868 647.418 89.744 641.927 87.472C636.626 85.0107 630.946 83.78 624.887 83.78C618.828 83.78 613.054 85.0107 607.563 87.472C602.262 89.744 597.623 92.868 593.647 96.844C589.671 100.82 586.452 105.553 583.991 111.044C581.719 116.345 580.583 122.025 580.583 128.084Z" fill="url(#paint5_linear_738_9790)"/>
<path d="M816.385 128.084C816.385 117.103 818.373 106.973 822.349 97.696C826.325 88.2293 831.816 80.088 838.821 73.272C845.827 66.2667 853.968 60.776 863.245 56.8C872.712 52.824 882.841 50.836 893.633 50.836C904.425 50.836 914.46 52.9187 923.737 57.084C933.204 61.06 941.345 66.5507 948.161 73.556C955.167 80.372 960.657 88.5133 964.633 97.98C968.799 107.257 970.881 117.292 970.881 128.084C970.881 138.876 968.799 149.005 964.633 158.472C960.657 167.749 955.167 175.891 948.161 182.896C941.345 189.712 933.204 195.108 923.737 199.084C914.46 203.249 904.425 205.332 893.633 205.332C889.468 205.332 885.303 204.859 881.137 203.912C876.972 202.965 872.901 201.735 868.925 200.22C865.139 198.705 861.541 197.001 858.133 195.108C854.725 193.025 851.791 190.848 849.329 188.576V255.316H816.385V128.084ZM849.329 128.084C849.329 134.143 850.465 139.917 852.737 145.408C855.199 150.709 858.417 155.348 862.393 159.324C866.369 163.3 871.008 166.519 876.309 168.98C881.8 171.252 887.575 172.388 893.633 172.388C899.692 172.388 905.372 171.252 910.673 168.98C916.164 166.519 920.897 163.3 924.873 159.324C928.849 155.348 931.973 150.709 934.245 145.408C936.707 139.917 937.937 134.143 937.937 128.084C937.937 122.025 936.707 116.345 934.245 111.044C931.973 105.553 928.849 100.82 924.873 96.844C920.897 92.868 916.164 89.744 910.673 87.472C905.372 85.0107 899.692 83.78 893.633 83.78C887.575 83.78 881.8 85.0107 876.309 87.472C871.008 89.744 866.369 92.868 862.393 96.844C858.417 100.82 855.199 105.553 852.737 111.044C850.465 116.345 849.329 122.025 849.329 128.084Z" fill="url(#paint6_linear_738_9790)"/>
<path d="M988.866 0.283996H1021.81V199.084H988.866V0.283996Z" fill="url(#paint7_linear_738_9790)"/>
<path d="M1139.48 115.304C1139.48 111.139 1138.62 107.163 1136.92 103.376C1135.4 99.5893 1133.23 96.276 1130.39 93.436C1127.55 90.596 1124.23 88.324 1120.45 86.62C1116.66 84.916 1112.59 84.064 1108.24 84.064C1103.88 84.064 1099.81 85.0107 1096.02 86.904C1092.24 88.608 1088.92 90.88 1086.08 93.72C1083.24 96.56 1080.97 99.8733 1079.27 103.66C1077.56 107.447 1076.71 111.328 1076.71 115.304L1077 199.084H1043.77V57.084H1076.71V65.32C1080.5 60.5867 1085.04 56.9893 1090.34 54.528C1095.64 52.0667 1101.61 50.7413 1108.24 50.552C1116.94 50.552 1125.18 52.256 1132.94 55.664C1140.9 59.072 1147.81 63.7107 1153.68 69.58C1159.73 75.4493 1164.47 82.36 1167.88 90.312C1171.28 98.0747 1172.99 106.405 1172.99 115.304L1173.27 199.084H1139.76L1139.48 115.304Z" fill="url(#paint8_linear_738_9790)"/>
<path d="M1194.65 57.084H1227.59V199.084H1194.65V57.084ZM1190.67 21.016C1190.67 14.9573 1192.66 9.94 1196.64 5.96401C1200.61 1.988 1205.44 0 1211.12 0C1217.18 0 1222.2 1.988 1226.17 5.96401C1230.15 9.94 1232.14 14.9573 1232.14 21.016C1232.14 26.696 1230.15 31.524 1226.17 35.5C1222.2 39.476 1217.18 41.464 1211.12 41.464C1205.44 41.464 1200.61 39.476 1196.64 35.5C1192.66 31.524 1190.67 26.696 1190.67 21.016Z" fill="url(#paint9_linear_738_9790)"/>
<path d="M1251.81 128.084C1251.81 117.103 1253.8 106.973 1257.78 97.696C1261.75 88.2293 1267.25 80.088 1274.25 73.272C1281.26 66.2667 1289.4 60.776 1298.67 56.8C1308.14 52.824 1318.27 50.836 1329.06 50.836C1339.85 50.836 1349.89 52.9187 1359.17 57.084C1368.63 61.06 1376.77 66.5507 1383.59 73.556C1390.6 80.372 1396.09 88.5133 1400.06 97.98C1404.23 107.257 1406.31 117.292 1406.31 128.084C1406.31 138.876 1404.23 149.005 1400.06 158.472C1396.09 167.749 1390.6 175.891 1383.59 182.896C1376.77 189.712 1368.63 195.108 1359.17 199.084C1349.89 203.249 1339.85 205.332 1329.06 205.332C1324.9 205.332 1320.73 204.859 1316.57 203.912C1312.4 202.965 1308.33 201.735 1304.35 200.22C1300.57 198.705 1296.97 197.001 1293.56 195.108C1290.15 193.025 1287.22 190.848 1284.76 188.576V255.316H1251.81V128.084ZM1284.76 128.084C1284.76 134.143 1285.89 139.917 1288.17 145.408C1290.63 150.709 1293.85 155.348 1297.82 159.324C1301.8 163.3 1306.44 166.519 1311.74 168.98C1317.23 171.252 1323 172.388 1329.06 172.388C1335.12 172.388 1340.8 171.252 1346.1 168.98C1351.59 166.519 1356.33 163.3 1360.3 159.324C1364.28 155.348 1367.4 150.709 1369.67 145.408C1372.14 139.917 1373.37 134.143 1373.37 128.084C1373.37 122.025 1372.14 116.345 1369.67 111.044C1367.4 105.553 1364.28 100.82 1360.3 96.844C1356.33 92.868 1351.59 89.744 1346.1 87.472C1340.8 85.0107 1335.12 83.78 1329.06 83.78C1323 83.78 1317.23 85.0107 1311.74 87.472C1306.44 89.744 1301.8 92.868 1297.82 96.844C1293.85 100.82 1290.63 105.553 1288.17 111.044C1285.89 116.345 1284.76 122.025 1284.76 128.084Z" fill="url(#paint10_linear_738_9790)"/>
<defs>
<linearGradient id="paint0_linear_738_9790" x1="36.4214" y1="44.356" x2="246.353" y2="203.812" gradientUnits="userSpaceOnUse">
<stop stop-color="#007DFA"/>
<stop offset="0.9999" stop-color="#00FFD1"/>
<stop offset="1" stop-color="#00FFD1"/>
</linearGradient>
<linearGradient id="paint1_linear_738_9790" x1="36.4214" y1="44.356" x2="246.353" y2="203.812" gradientUnits="userSpaceOnUse">
<stop stop-color="#007DFA"/>
<stop offset="0.9999" stop-color="#00FFD1"/>
<stop offset="1" stop-color="#00FFD1"/>
</linearGradient>
<linearGradient id="paint2_linear_738_9790" x1="627.997" y1="23.1656" x2="339.444" y2="378.483" gradientUnits="userSpaceOnUse">
<stop stop-color="#007DFA"/>
<stop offset="1" stop-color="#00FADC"/>
</linearGradient>
<linearGradient id="paint3_linear_738_9790" x1="627.997" y1="23.1656" x2="339.444" y2="378.483" gradientUnits="userSpaceOnUse">
<stop stop-color="#007DFA"/>
<stop offset="1" stop-color="#00FADC"/>
</linearGradient>
<linearGradient id="paint4_linear_738_9790" x1="627.997" y1="23.1656" x2="339.444" y2="378.483" gradientUnits="userSpaceOnUse">
<stop stop-color="#007DFA"/>
<stop offset="1" stop-color="#00FADC"/>
</linearGradient>
<linearGradient id="paint5_linear_738_9790" x1="627.997" y1="23.1656" x2="339.444" y2="378.483" gradientUnits="userSpaceOnUse">
<stop stop-color="#007DFA"/>
<stop offset="1" stop-color="#00FADC"/>
</linearGradient>
<linearGradient id="paint6_linear_738_9790" x1="627.997" y1="23.1656" x2="339.444" y2="378.483" gradientUnits="userSpaceOnUse">
<stop stop-color="#007DFA"/>
<stop offset="1" stop-color="#00FADC"/>
</linearGradient>
<linearGradient id="paint7_linear_738_9790" x1="627.997" y1="23.1656" x2="339.444" y2="378.483" gradientUnits="userSpaceOnUse">
<stop stop-color="#007DFA"/>
<stop offset="1" stop-color="#00FADC"/>
</linearGradient>
<linearGradient id="paint8_linear_738_9790" x1="627.997" y1="23.1656" x2="339.444" y2="378.483" gradientUnits="userSpaceOnUse">
<stop stop-color="#007DFA"/>
<stop offset="1" stop-color="#00FADC"/>
</linearGradient>
<linearGradient id="paint9_linear_738_9790" x1="627.997" y1="23.1656" x2="339.444" y2="378.483" gradientUnits="userSpaceOnUse">
<stop stop-color="#007DFA"/>
<stop offset="1" stop-color="#00FADC"/>
</linearGradient>
<linearGradient id="paint10_linear_738_9790" x1="627.997" y1="23.1656" x2="339.444" y2="378.483" gradientUnits="userSpaceOnUse">
<stop stop-color="#007DFA"/>
<stop offset="1" stop-color="#00FADC"/>
</linearGradient>
</defs>
</svg>
