<svg width="1409" height="256" viewBox="0 0 1409 256" fill="none" xmlns="http://www.w3.org/2000/svg">
<path d="M73.6813 95.6508C62.3207 95.5402 54.7606 95.3949 47.1925 95.7338L82.7744 18.4033H34.9813L0 124.669H53.0644C53.6495 133.367 55.5802 141.616 58.8565 149.417C63.0351 158.724 68.6382 166.891 75.6658 173.918C82.6934 180.756 90.8607 186.264 100.168 190.443C109.664 194.431 119.826 196.426 130.652 196.426C138.63 196.426 146.512 195.286 154.299 193.007C162.277 190.918 169.684 187.499 176.522 182.75C183.359 178.002 189.437 171.829 194.756 164.232C200.074 156.634 204.347 147.422 207.576 136.596H196.724C181.437 136.596 168.517 147.465 156.009 156.254C148.981 161.003 140.529 163.377 130.652 163.377C124.764 163.377 119.161 162.332 113.843 160.243C108.525 157.964 103.871 154.925 99.8826 151.126C95.894 147.327 92.6651 142.864 90.1959 137.736C81.5926 119.867 95.6344 95.8647 73.6813 95.6508Z" fill="white"/>
<path d="M121.338 94.9801C117.546 109.539 128.533 123.755 143.578 123.755H208.227C208.037 113.119 206.043 103.052 202.244 93.5556C198.636 83.8688 193.507 75.4167 186.86 68.1991C180.212 60.7916 172.14 54.9036 162.643 50.5351C153.146 46.1666 142.415 43.9823 130.449 43.9823C119.622 43.9823 109.461 46.0716 99.964 50.2502C90.6571 54.2388 83.7264 57.6398 75.4623 66.7746C69.7035 73.1401 65.4765 81.3219 63.8581 85.4422H69.8689C90.0826 85.4422 110.245 77.0927 130.449 76.4613C148.303 76.6513 160.838 82.8242 168.056 94.9801H121.338Z" fill="white"/>
<path d="M336.51 97.7325V130.676H234.838V97.7325H336.51ZM355.673 90.6325V57.6885H368.737V6.85247H401.681V57.6885H434.909V90.6325H401.681V199.688H368.737V90.6325H355.673ZM450.247 90.6325V57.6885H463.311V6.85247H496.255V57.6885H529.483V90.6325H496.255V199.688H463.311V90.6325H450.247ZM549.365 128.688C549.365 117.707 551.353 107.578 555.329 98.3005C559.305 88.8338 564.796 80.6925 571.801 73.8765C578.807 66.8711 586.948 61.3805 596.225 57.4045C605.692 53.4285 615.821 51.4405 626.613 51.4405C637.405 51.4405 647.44 53.5231 656.717 57.6885C666.184 61.6645 674.325 67.1551 681.141 74.1605C688.147 80.9765 693.637 89.1178 697.613 98.5845C701.779 107.862 703.861 117.896 703.861 128.688C703.861 139.48 701.779 149.61 697.613 159.076C693.637 168.354 688.147 176.495 681.141 183.5C674.325 190.316 666.184 195.712 656.717 199.688C647.44 203.854 637.405 205.936 626.613 205.936C622.448 205.936 618.283 205.463 614.117 204.516C609.952 203.57 605.881 202.339 601.905 200.824C598.119 199.31 594.521 197.606 591.113 195.712C587.705 193.63 584.771 191.452 582.309 189.18V255.92H549.365V128.688ZM582.309 128.688C582.309 134.747 583.445 140.522 585.717 146.012C588.179 151.314 591.397 155.952 595.373 159.928C599.349 163.904 603.988 167.123 609.289 169.584C614.78 171.856 620.555 172.992 626.613 172.992C632.672 172.992 638.352 171.856 643.653 169.584C649.144 167.123 653.877 163.904 657.853 159.928C661.829 155.952 664.953 151.314 667.225 146.012C669.687 140.522 670.917 134.747 670.917 128.688C670.917 122.63 669.687 116.95 667.225 111.648C664.953 106.158 661.829 101.424 657.853 97.4485C653.877 93.4725 649.144 90.3485 643.653 88.0765C638.352 85.6151 632.672 84.3845 626.613 84.3845C620.555 84.3845 614.78 85.6151 609.289 88.0765C603.988 90.3485 599.349 93.4725 595.373 97.4485C591.397 101.424 588.179 106.158 585.717 111.648C583.445 116.95 582.309 122.63 582.309 128.688ZM818.111 128.688C818.111 117.707 820.099 107.578 824.075 98.3005C828.051 88.8338 833.542 80.6925 840.547 73.8765C847.553 66.8711 855.694 61.3805 864.971 57.4045C874.438 53.4285 884.567 51.4405 895.359 51.4405C906.151 51.4405 916.186 53.5231 925.463 57.6885C934.93 61.6645 943.071 67.1551 949.887 74.1605C956.893 80.9765 962.383 89.1178 966.359 98.5845C970.525 107.862 972.607 117.896 972.607 128.688C972.607 139.48 970.525 149.61 966.359 159.076C962.383 168.354 956.893 176.495 949.887 183.5C943.071 190.316 934.93 195.712 925.463 199.688C916.186 203.854 906.151 205.936 895.359 205.936C891.194 205.936 887.029 205.463 882.863 204.516C878.698 203.57 874.627 202.339 870.651 200.824C866.865 199.31 863.267 197.606 859.859 195.712C856.451 193.63 853.517 191.452 851.055 189.18V255.92H818.111V128.688ZM851.055 128.688C851.055 134.747 852.191 140.522 854.463 146.012C856.925 151.314 860.143 155.952 864.119 159.928C868.095 163.904 872.734 167.123 878.035 169.584C883.526 171.856 889.301 172.992 895.359 172.992C901.418 172.992 907.098 171.856 912.399 169.584C917.89 167.123 922.623 163.904 926.599 159.928C930.575 155.952 933.699 151.314 935.971 146.012C938.433 140.522 939.663 134.747 939.663 128.688C939.663 122.63 938.433 116.95 935.971 111.648C933.699 106.158 930.575 101.424 926.599 97.4485C922.623 93.4725 917.89 90.3485 912.399 88.0765C907.098 85.6151 901.418 84.3845 895.359 84.3845C889.301 84.3845 883.526 85.6151 878.035 88.0765C872.734 90.3485 868.095 93.4725 864.119 97.4485C860.143 101.424 856.925 106.158 854.463 111.648C852.191 116.95 851.055 122.63 851.055 128.688ZM990.593 0.888463H1023.54V199.688H990.593V0.888463ZM1141.2 115.908C1141.2 111.743 1140.35 107.767 1138.65 103.98C1137.13 100.194 1134.95 96.8805 1132.11 94.0405C1129.27 91.2005 1125.96 88.9285 1122.17 87.2245C1118.39 85.5205 1114.32 84.6685 1109.96 84.6685C1105.61 84.6685 1101.54 85.6151 1097.75 87.5085C1093.96 89.2125 1090.65 91.4845 1087.81 94.3245C1084.97 97.1645 1082.7 100.478 1080.99 104.264C1079.29 108.051 1078.44 111.932 1078.44 115.908L1078.72 199.688H1045.49V57.6885H1078.44V65.9245C1082.22 61.1911 1086.77 57.5938 1092.07 55.1325C1097.37 52.6711 1103.33 51.3458 1109.96 51.1565C1118.67 51.1565 1126.91 52.8605 1134.67 56.2685C1142.62 59.6765 1149.53 64.3151 1155.4 70.1845C1161.46 76.0538 1166.19 82.9645 1169.6 90.9165C1173.01 98.6791 1174.71 107.01 1174.71 115.908L1175 199.688H1141.49L1141.2 115.908ZM1196.38 57.6885H1229.32V199.688H1196.38V57.6885ZM1192.4 21.6205C1192.4 15.5618 1194.39 10.5445 1198.36 6.56847C1202.34 2.59247 1207.17 0.604467 1212.85 0.604467C1218.91 0.604467 1223.92 2.59247 1227.9 6.56847C1231.88 10.5445 1233.86 15.5618 1233.86 21.6205C1233.86 27.3005 1231.88 32.1285 1227.9 36.1045C1223.92 40.0805 1218.91 42.0685 1212.85 42.0685C1207.17 42.0685 1202.34 40.0805 1198.36 36.1045C1194.39 32.1285 1192.4 27.3005 1192.4 21.6205ZM1253.54 128.688C1253.54 117.707 1255.53 107.578 1259.51 98.3005C1263.48 88.8338 1268.97 80.6925 1275.98 73.8765C1282.98 66.8711 1291.12 61.3805 1300.4 57.4045C1309.87 53.4285 1320 51.4405 1330.79 51.4405C1341.58 51.4405 1351.62 53.5231 1360.89 57.6885C1370.36 61.6645 1378.5 67.1551 1385.32 74.1605C1392.32 80.9765 1397.81 89.1178 1401.79 98.5845C1405.95 107.862 1408.04 117.896 1408.04 128.688C1408.04 139.48 1405.95 149.61 1401.79 159.076C1397.81 168.354 1392.32 176.495 1385.32 183.5C1378.5 190.316 1370.36 195.712 1360.89 199.688C1351.62 203.854 1341.58 205.936 1330.79 205.936C1326.62 205.936 1322.46 205.463 1318.29 204.516C1314.13 203.57 1310.06 202.339 1306.08 200.824C1302.29 199.31 1298.7 197.606 1295.29 195.712C1291.88 193.63 1288.95 191.452 1286.49 189.18V255.92H1253.54V128.688ZM1286.49 128.688C1286.49 134.747 1287.62 140.522 1289.89 146.012C1292.35 151.314 1295.57 155.952 1299.55 159.928C1303.53 163.904 1308.16 167.123 1313.47 169.584C1318.96 171.856 1324.73 172.992 1330.79 172.992C1336.85 172.992 1342.53 171.856 1347.83 169.584C1353.32 167.123 1358.05 163.904 1362.03 159.928C1366.01 155.952 1369.13 151.314 1371.4 146.012C1373.86 140.522 1375.09 134.747 1375.09 128.688C1375.09 122.63 1373.86 116.95 1371.4 111.648C1369.13 106.158 1366.01 101.424 1362.03 97.4485C1358.05 93.4725 1353.32 90.3485 1347.83 88.0765C1342.53 85.6151 1336.85 84.3845 1330.79 84.3845C1324.73 84.3845 1318.96 85.6151 1313.47 88.0765C1308.16 90.3485 1303.53 93.4725 1299.55 97.4485C1295.57 101.424 1292.35 106.158 1289.89 111.648C1287.62 116.95 1286.49 122.63 1286.49 128.688Z" fill="white"/>
</svg>
