<svg width="209" height="179" viewBox="0 0 209 179" fill="none" xmlns="http://www.w3.org/2000/svg">
<path d="M74.1207 77.999C62.7602 77.8883 55.2001 77.7431 47.632 78.082L83.2139 0.751465H35.4208L0.439453 107.017H53.5038C54.089 115.715 56.0197 123.964 59.2959 131.765C63.4745 141.072 69.0776 149.239 76.1053 156.267C83.1329 163.104 91.3001 168.612 100.607 172.791C110.104 176.78 120.265 178.774 131.092 178.774C139.069 178.774 146.951 177.634 154.739 175.355C162.716 173.266 170.123 169.847 176.961 165.099C183.799 160.35 189.877 154.177 195.195 146.58C200.513 138.982 204.787 129.771 208.016 118.944H197.163C181.876 118.944 168.956 129.813 156.448 138.603V138.603C149.42 143.351 140.968 145.725 131.092 145.725C125.204 145.725 119.601 144.68 114.282 142.591C108.964 140.312 104.311 137.273 100.322 133.474C96.3334 129.676 93.1045 125.212 90.6353 120.084C82.032 102.215 96.0738 78.2128 74.1207 77.999Z" fill="black"/>
<path d="M121.777 77.3282V77.3282C117.985 91.8875 128.973 106.104 144.018 106.104H208.667C208.477 95.4671 206.483 85.4005 202.684 75.9037C199.075 66.217 193.947 57.7648 187.299 50.5473C180.651 43.1398 172.579 37.2518 163.082 32.8833C153.585 28.5147 142.854 26.3305 130.888 26.3305C120.062 26.3305 109.9 28.4198 100.403 32.5983C91.0966 36.587 84.1659 39.9879 75.9017 49.1228C70.143 55.4883 65.9159 63.67 64.2975 67.7904H70.3083C90.5221 67.7904 110.684 59.4409 130.888 58.8095V58.8095C148.742 58.9994 161.278 65.1723 168.495 77.3282H121.777Z" fill="black"/>
</svg>
