<svg width="209" height="179" viewBox="0 0 209 179" fill="none" xmlns="http://www.w3.org/2000/svg">
<path d="M74.3649 77.999C63.0043 77.8883 55.4442 77.7431 47.8761 78.082L83.458 0.751465H35.6649L0.683594 107.017H53.748C54.3331 115.715 56.2638 123.964 59.5401 131.765C63.7187 141.072 69.3218 149.239 76.3494 156.267C83.377 163.104 91.5443 168.612 100.851 172.791C110.348 176.78 120.509 178.774 131.336 178.774C139.313 178.774 147.195 177.634 154.983 175.355C162.96 173.266 170.368 169.847 177.205 165.099C184.043 160.35 190.121 154.177 195.439 146.58C200.757 138.982 205.031 129.771 208.26 118.944H197.407C182.12 118.944 169.2 129.813 156.692 138.603V138.603C149.665 143.351 141.212 145.725 131.336 145.725C125.448 145.725 119.845 144.68 114.526 142.591C109.208 140.312 104.555 137.273 100.566 133.474C96.5776 129.676 93.3487 125.212 90.8795 120.084C82.2762 102.215 96.318 78.2128 74.3649 77.999Z" fill="white"/>
<path d="M122.021 77.3282V77.3282C118.229 91.8875 129.217 106.104 144.262 106.104H208.911C208.721 95.4671 206.727 85.4005 202.928 75.9037C199.319 66.217 194.191 57.7648 187.543 50.5473C180.895 43.1398 172.823 37.2518 163.326 32.8833C153.83 28.5147 143.098 26.3305 131.132 26.3305C120.306 26.3305 110.144 28.4198 100.648 32.5983C91.3407 36.587 84.41 39.9879 76.1459 49.1228C70.3871 55.4883 66.1601 63.67 64.5417 67.7904H70.5524C90.7662 67.7904 110.928 59.4409 131.132 58.8095V58.8095C148.986 58.9994 161.522 65.1723 168.74 77.3282H122.021Z" fill="white"/>
</svg>
