<svg width="250" height="249" viewBox="0 0 250 249" fill="none" xmlns="http://www.w3.org/2000/svg">
<circle cx="125.269" cy="124.402" r="124.322" fill="url(#paint0_linear_738_9794)"/>
<path d="M100.166 114.698C90.7956 114.607 84.5595 114.487 78.3169 114.767L107.667 50.98H68.2444L39.3896 138.635H83.1604C83.643 145.809 85.2356 152.613 87.9381 159.048C91.3848 166.725 96.0066 173.462 101.803 179.258C107.6 184.898 114.337 189.442 122.014 192.889C129.847 196.179 138.229 197.824 147.16 197.824C153.74 197.824 160.242 196.884 166.665 195.004C173.245 193.28 179.355 190.46 184.996 186.544C190.636 182.627 195.649 177.535 200.036 171.268C204.423 165.001 207.948 157.403 210.611 148.473H201.66C189.05 148.473 178.392 157.438 168.075 164.688V164.688C162.278 168.605 155.306 170.563 147.16 170.563C142.303 170.563 137.681 169.701 133.294 167.978C128.907 166.098 125.069 163.591 121.779 160.458C118.489 157.324 115.825 153.643 113.789 149.413C106.692 134.674 118.275 114.875 100.166 114.698Z" fill="white"/>
<path d="M139.476 114.145V114.145C136.348 126.155 145.412 137.881 157.822 137.881H211.148C210.992 129.107 209.347 120.804 206.213 112.97C203.236 104.98 199.006 98.0081 193.523 92.0546C188.039 85.9444 181.381 81.0877 173.547 77.4842C165.714 73.8808 156.862 72.0791 146.992 72.0791C138.061 72.0791 129.68 73.8025 121.846 77.2492C114.169 80.5393 108.452 83.3446 101.636 90.8796C96.8854 96.1302 93.3986 102.879 92.0637 106.278H97.0218C113.695 106.278 130.326 99.3906 146.992 98.8698V98.8698C161.719 99.0264 172.059 104.118 178.012 114.145H139.476Z" fill="white"/>
<defs>
<linearGradient id="paint0_linear_738_9794" x1="44.4379" y1="36.3286" x2="322.488" y2="216.889" gradientUnits="userSpaceOnUse">
<stop stop-color="#007DFA"/>
<stop offset="0.9999" stop-color="#00FFD1"/>
<stop offset="1" stop-color="#00CBFF"/>
</linearGradient>
</defs>
</svg>
