<svg width="209" height="179" viewBox="0 0 209 179" fill="none" xmlns="http://www.w3.org/2000/svg">
<path d="M73.8727 77.999C62.5121 77.8883 54.952 77.7431 47.3839 78.082L82.9658 0.751465H35.1727L0.191406 107.017H53.2558C53.8409 115.715 55.7716 123.964 59.0479 131.765C63.2265 141.072 68.8296 149.239 75.8572 156.267C82.8848 163.104 91.0521 168.612 100.359 172.791C109.856 176.78 120.017 178.774 130.844 178.774C138.821 178.774 146.703 177.634 154.491 175.355C162.468 173.266 169.875 169.847 176.713 165.099C183.551 160.35 189.629 154.177 194.947 146.58C200.265 138.982 204.539 129.771 207.768 118.944H196.915C181.628 118.944 168.708 129.813 156.2 138.603V138.603C149.172 143.351 140.72 145.725 130.844 145.725C124.956 145.725 119.353 144.68 114.034 142.591C108.716 140.312 104.063 137.273 100.074 133.474C96.0854 129.676 92.8565 125.212 90.3873 120.084C81.784 102.215 95.8258 78.2128 73.8727 77.999Z" fill="url(#paint0_linear_738_9793)"/>
<path d="M121.529 77.3282V77.3282C117.737 91.8875 128.725 106.104 143.77 106.104H208.419C208.229 95.4671 206.235 85.4005 202.436 75.9037C198.827 66.217 193.699 57.7648 187.051 50.5473C180.403 43.1398 172.331 37.2518 162.834 32.8833C153.337 28.5147 142.606 26.3305 130.64 26.3305C119.814 26.3305 109.652 28.4198 100.155 32.5983C90.8486 36.587 83.9179 39.9879 75.6537 49.1228C69.8949 55.4883 65.6679 63.67 64.0495 67.7904H71.306C90.7154 67.7904 109.999 59.6351 129.393 58.854C129.802 58.8375 130.218 58.8227 130.64 58.8095C148.494 58.9994 161.03 65.1723 168.247 77.3282H121.529Z" fill="url(#paint1_linear_738_9793)"/>
<defs>
<linearGradient id="paint0_linear_738_9793" x1="36.6128" y1="26.7042" x2="246.544" y2="186.16" gradientUnits="userSpaceOnUse">
<stop stop-color="#007DFA"/>
<stop offset="0.9999" stop-color="#00FFD1"/>
<stop offset="1" stop-color="#00CBFF"/>
</linearGradient>
<linearGradient id="paint1_linear_738_9793" x1="36.6128" y1="26.7042" x2="246.544" y2="186.16" gradientUnits="userSpaceOnUse">
<stop stop-color="#007DFA"/>
<stop offset="0.9999" stop-color="#00FFD1"/>
<stop offset="1" stop-color="#00CBFF"/>
</linearGradient>
</defs>
</svg>
